<svg id="visual" viewBox="0 0 900 600" width="900" height="600" xmlns="http://www.w3.org/2000/svg" xmlns:xlink="http://www.w3.org/1999/xlink" version="1.1"><g stroke-width="1" stroke-linejoin="bevel"><path d="M385 288L331 315L432 395Z" fill="#1d4e6b" stroke="#1d4e6b"></path><path d="M331 315L311 379L432 395Z" fill="#205a7a" stroke="#205a7a"></path><path d="M432 395L518 313L385 288Z" fill="#297ea6" stroke="#297ea6"></path><path d="M319 491L397 502L432 395Z" fill="#15384f" stroke="#15384f"></path><path d="M432 395L532 382L518 313Z" fill="#00101c" stroke="#00101c"></path><path d="M501 490L532 382L432 395Z" fill="#112e42" stroke="#112e42"></path><path d="M311 379L319 491L432 395Z" fill="#081a28" stroke="#081a28"></path><path d="M502 184L360 184L385 288Z" fill="#277297" stroke="#277297"></path><path d="M385 288L360 184L331 315Z" fill="#00101c" stroke="#00101c"></path><path d="M331 315L181 365L311 379Z" fill="#081a28" stroke="#081a28"></path><path d="M397 502L501 490L432 395Z" fill="#246688" stroke="#246688"></path><path d="M532 382L561 264L518 313Z" fill="#081a28" stroke="#081a28"></path><path d="M518 313L502 184L385 288Z" fill="#081a28" stroke="#081a28"></path><path d="M169 264L181 365L331 315Z" fill="#112e42" stroke="#112e42"></path><path d="M311 379L181 365L319 491Z" fill="#081a28" stroke="#081a28"></path><path d="M561 264L502 184L518 313Z" fill="#081a28" stroke="#081a28"></path><path d="M373 117L274 165L360 184Z" fill="#246688" stroke="#246688"></path><path d="M360 184L274 165L331 315Z" fill="#081a28" stroke="#081a28"></path><path d="M501 490L591 430L532 382Z" fill="#081a28" stroke="#081a28"></path><path d="M532 382L591 430L561 264Z" fill="#205a7a" stroke="#205a7a"></path><path d="M537 600L560 497L501 490Z" fill="#297ea6" stroke="#297ea6"></path><path d="M501 490L560 497L591 430Z" fill="#00101c" stroke="#00101c"></path><path d="M172 236L169 264L331 315Z" fill="#205a7a" stroke="#205a7a"></path><path d="M502 184L373 117L360 184Z" fill="#246688" stroke="#246688"></path><path d="M561 264L569 204L502 184Z" fill="#277297" stroke="#277297"></path><path d="M502 184L498 97L373 117Z" fill="#277297" stroke="#277297"></path><path d="M729 226L569 204L561 264Z" fill="#1d4e6b" stroke="#1d4e6b"></path><path d="M274 165L172 236L331 315Z" fill="#205a7a" stroke="#205a7a"></path><path d="M322 600L396 600L397 502Z" fill="#0c2435" stroke="#0c2435"></path><path d="M397 502L396 600L501 490Z" fill="#205a7a" stroke="#205a7a"></path><path d="M322 600L397 502L319 491Z" fill="#297ea6" stroke="#297ea6"></path><path d="M139 223L131 334L169 264Z" fill="#19435d" stroke="#19435d"></path><path d="M169 264L131 334L181 365Z" fill="#277297" stroke="#277297"></path><path d="M194 538L322 600L319 491Z" fill="#112e42" stroke="#112e42"></path><path d="M194 538L319 491L181 365Z" fill="#19435d" stroke="#19435d"></path><path d="M121 476L194 538L181 365Z" fill="#19435d" stroke="#19435d"></path><path d="M172 236L139 223L169 264Z" fill="#205a7a" stroke="#205a7a"></path><path d="M162 138L139 223L172 236Z" fill="#1d4e6b" stroke="#1d4e6b"></path><path d="M162 138L172 236L274 165Z" fill="#081a28" stroke="#081a28"></path><path d="M564 108L498 97L502 184Z" fill="#1d4e6b" stroke="#1d4e6b"></path><path d="M69 430L121 476L181 365Z" fill="#19435d" stroke="#19435d"></path><path d="M560 497L735 477L591 430Z" fill="#246688" stroke="#246688"></path><path d="M396 600L537 600L501 490Z" fill="#15384f" stroke="#15384f"></path><path d="M674 87L564 108L569 204Z" fill="#19435d" stroke="#19435d"></path><path d="M569 204L564 108L502 184Z" fill="#205a7a" stroke="#205a7a"></path><path d="M263 68L274 165L373 117Z" fill="#205a7a" stroke="#205a7a"></path><path d="M263 68L162 138L274 165Z" fill="#081a28" stroke="#081a28"></path><path d="M295 0L263 68L373 117Z" fill="#205a7a" stroke="#205a7a"></path><path d="M537 600L578 600L560 497Z" fill="#0c2435" stroke="#0c2435"></path><path d="M63 600L179 600L194 538Z" fill="#081a28" stroke="#081a28"></path><path d="M194 538L179 600L322 600Z" fill="#246688" stroke="#246688"></path><path d="M131 334L69 430L181 365Z" fill="#297ea6" stroke="#297ea6"></path><path d="M121 476L63 600L194 538Z" fill="#277297" stroke="#277297"></path><path d="M0 337L69 430L131 334Z" fill="#277297" stroke="#277297"></path><path d="M0 337L131 334L0 239Z" fill="#112e42" stroke="#112e42"></path><path d="M738 367L721 322L591 430Z" fill="#0c2435" stroke="#0c2435"></path><path d="M591 430L721 322L561 264Z" fill="#00101c" stroke="#00101c"></path><path d="M515 0L402 0L498 97Z" fill="#297ea6" stroke="#297ea6"></path><path d="M498 97L402 0L373 117Z" fill="#205a7a" stroke="#205a7a"></path><path d="M735 477L738 367L591 430Z" fill="#00101c" stroke="#00101c"></path><path d="M95 0L72 108L162 138Z" fill="#081a28" stroke="#081a28"></path><path d="M402 0L295 0L373 117Z" fill="#081a28" stroke="#081a28"></path><path d="M721 322L729 226L561 264Z" fill="#00101c" stroke="#00101c"></path><path d="M807 312L729 226L721 322Z" fill="#1d4e6b" stroke="#1d4e6b"></path><path d="M666 600L735 477L560 497Z" fill="#1d4e6b" stroke="#1d4e6b"></path><path d="M578 600L666 600L560 497Z" fill="#1d4e6b" stroke="#1d4e6b"></path><path d="M564 108L515 0L498 97Z" fill="#246688" stroke="#246688"></path><path d="M635 0L515 0L564 108Z" fill="#1d4e6b" stroke="#1d4e6b"></path><path d="M0 239L131 334L139 223Z" fill="#246688" stroke="#246688"></path><path d="M69 430L0 462L121 476Z" fill="#297ea6" stroke="#297ea6"></path><path d="M0 337L0 400L69 430Z" fill="#205a7a" stroke="#205a7a"></path><path d="M729 226L674 87L569 204Z" fill="#246688" stroke="#246688"></path><path d="M162 138L72 108L139 223Z" fill="#00101c" stroke="#00101c"></path><path d="M187 0L162 138L263 68Z" fill="#1d4e6b" stroke="#1d4e6b"></path><path d="M0 400L0 462L69 430Z" fill="#297ea6" stroke="#297ea6"></path><path d="M72 108L0 239L139 223Z" fill="#1d4e6b" stroke="#1d4e6b"></path><path d="M789 600L765 484L735 477Z" fill="#277297" stroke="#277297"></path><path d="M735 477L808 418L738 367Z" fill="#0c2435" stroke="#0c2435"></path><path d="M738 367L807 312L721 322Z" fill="#277297" stroke="#277297"></path><path d="M295 0L187 0L263 68Z" fill="#15384f" stroke="#15384f"></path><path d="M0 462L63 600L121 476Z" fill="#297ea6" stroke="#297ea6"></path><path d="M808 418L807 312L738 367Z" fill="#205a7a" stroke="#205a7a"></path><path d="M729 226L771 161L674 87Z" fill="#081a28" stroke="#081a28"></path><path d="M765 484L808 418L735 477Z" fill="#205a7a" stroke="#205a7a"></path><path d="M807 312L771 161L729 226Z" fill="#246688" stroke="#246688"></path><path d="M686 0L635 0L674 87Z" fill="#1d4e6b" stroke="#1d4e6b"></path><path d="M674 87L635 0L564 108Z" fill="#19435d" stroke="#19435d"></path><path d="M187 0L95 0L162 138Z" fill="#15384f" stroke="#15384f"></path><path d="M72 108L0 97L0 239Z" fill="#277297" stroke="#277297"></path><path d="M0 462L0 600L63 600Z" fill="#205a7a" stroke="#205a7a"></path><path d="M0 0L0 97L72 108Z" fill="#1d4e6b" stroke="#1d4e6b"></path><path d="M776 65L686 0L674 87Z" fill="#19435d" stroke="#19435d"></path><path d="M666 600L789 600L735 477Z" fill="#297ea6" stroke="#297ea6"></path><path d="M765 484L900 490L808 418Z" fill="#246688" stroke="#246688"></path><path d="M900 138L776 65L771 161Z" fill="#1d4e6b" stroke="#1d4e6b"></path><path d="M771 161L776 65L674 87Z" fill="#277297" stroke="#277297"></path><path d="M900 387L900 320L807 312Z" fill="#112e42" stroke="#112e42"></path><path d="M807 312L900 172L771 161Z" fill="#277297" stroke="#277297"></path><path d="M900 387L807 312L808 418Z" fill="#15384f" stroke="#15384f"></path><path d="M900 490L900 387L808 418Z" fill="#112e42" stroke="#112e42"></path><path d="M95 0L0 0L72 108Z" fill="#0c2435" stroke="#0c2435"></path><path d="M900 0L785 0L776 65Z" fill="#277297" stroke="#277297"></path><path d="M776 65L785 0L686 0Z" fill="#246688" stroke="#246688"></path><path d="M789 600L900 490L765 484Z" fill="#15384f" stroke="#15384f"></path><path d="M900 320L900 172L807 312Z" fill="#297ea6" stroke="#297ea6"></path><path d="M900 172L900 138L771 161Z" fill="#0c2435" stroke="#0c2435"></path><path d="M789 600L900 600L900 490Z" fill="#19435d" stroke="#19435d"></path><path d="M900 138L900 0L776 65Z" fill="#00101c" stroke="#00101c"></path></g></svg>